<?xml version="1.0" encoding="utf-8"?><!-- Uploaded to: SVG Repo, www.svgrepo.com, Generator: SVG Repo Mixer Tools -->
<svg fill="#000000" width="800px" height="800px" viewBox="0 0 24 24" id="database-3" data-name="Flat Color" xmlns="http://www.w3.org/2000/svg" class="icon flat-color"><path id="primary" d="M21,8V4a2,2,0,0,0-2-2H5A2,2,0,0,0,3,4V8A1,1,0,0,0,4,9a1,1,0,0,0-1,1v4a2,2,0,0,0,2,2h6v4H8a1,1,0,0,0,0,2h8a1,1,0,0,0,0-2H13V16h6a2,2,0,0,0,2-2V10a1,1,0,0,0-1-1A1,1,0,0,0,21,8Z" style="fill: rgb(0, 0, 0);"></path><path id="secondary" d="M20,9H4a1,1,0,0,0-1,1v4a2,2,0,0,0,2,2H19a2,2,0,0,0,2-2V10A1,1,0,0,0,20,9Z" style="fill: rgb(44, 169, 188);"></path></svg>